<?xml version="1.0" encoding="utf-8"?>
<!-- Generator: Adobe Illustrator 18.0.0, SVG Export Plug-In . SVG Version: 6.00 Build 0)  -->
<!DOCTYPE svg PUBLIC "-//W3C//DTD SVG 1.1//EN" "http://www.w3.org/Graphics/SVG/1.1/DTD/svg11.dtd">
<svg version="1.1" id="Layer_2" xmlns="http://www.w3.org/2000/svg" xmlns:xlink="http://www.w3.org/1999/xlink" x="0px" y="0px"
	 viewBox="0 0 18 18" enable-background="new 0 0 18 18" xml:space="preserve">
<path fill-rule="evenodd" clip-rule="evenodd" fill="none" d="M1,1h16h1v1v15v1h-1H1H0v-1V2V1H1z M11.7,8.5L7.8,6.1
	C7.7,6,7.5,6,7.3,6C7.1,6.1,7,6.3,7,6.4v5.1C7,11.7,7.1,12,7.3,12c0,0,0.3,0.1,0.5-0.1l3.9-2.5C11.8,9.4,12,9.3,12,9
	S11.8,8.6,11.7,8.5z M2,3h1v1H2V3z M2,5h1v1H2V5z M2,7h1v1H2V7z M2,9h1v1H2V9z M2,11h1v1H2V11z M2,13h1v1H2V13z M2,15h1v1H2V15z
	 M15,3h1v1h-1V3z M15,5h1v1h-1V5z M15,7h1v1h-1V7z M15,9h1v1h-1V9z M15,11h1v1h-1V11z M15,13h1v1h-1V13z M15,15h1v1h-1V15z"/>
</svg>
