<?xml version="1.0" encoding="utf-8"?>
<!-- Generator: Adobe Illustrator 19.0.1, SVG Export Plug-In . SVG Version: 6.00 Build 0)  -->
<!DOCTYPE svg PUBLIC "-//W3C//DTD SVG 1.1//EN" "http://www.w3.org/Graphics/SVG/1.1/DTD/svg11.dtd">
<svg version="1.1" id="Layer_1" xmlns="http://www.w3.org/2000/svg" xmlns:xlink="http://www.w3.org/1999/xlink" x="0px" y="0px"
	 viewBox="0 0 470 978" style="enable-background:new 0 0 470 978;" xml:space="preserve">
<style type="text/css">
	.st0{fill:#ccc;}
	.st1{fill:#fff;}
</style>
<path class="st0" d="M432.7,978H37.3C16.7,978,0,961.3,0,940.7V37.3C0,16.7,16.7,0,37.3,0h395.3C453.3,0,470,16.7,470,37.3v903.3
	C470,961.3,453.3,978,432.7,978z"/>
<path class="st1" d="M273.4,52.1h-76.7c-4.4,0-8-3.6-8-8v0c0-4.4,3.6-8,8-8h76.7c4.4,0,8,3.6,8,8v0
	C281.4,48.5,277.8,52.1,273.4,52.1z"/>
<circle class="st1" cx="237.7" cy="933.8" r="24"/>
</svg>
