<?xml version="1.0" encoding="utf-8"?>
<!-- Generator: Adobe Illustrator 19.1.1, SVG Export Plug-In . SVG Version: 6.00 Build 0)  -->
<svg version="1.1" id="Layer_1" xmlns="http://www.w3.org/2000/svg" xmlns:xlink="http://www.w3.org/1999/xlink" x="0px" y="0px"
	 viewBox="-244 -209 470 978" style="enable-background:new -244 -209 470 978;" xml:space="preserve">
<style type="text/css">
	.st0{fill:#CCCCCC;}
	.st1{fill:#FFFFFF;}
</style>
<path class="st0" d="M188.7,759h-395.4c-20.6,0-37.3-16.4-37.3-36.6v-886.8c0-20.2,16.7-36.6,37.3-36.6h395.3
	c20.7,0,37.4,16.4,37.4,36.6v886.7C226,742.6,209.3,759,188.7,759z"/>
<path class="st1" d="M29.4-156.9h-76.7c-4.4,0-8-3.6-8-8l0,0c0-4.4,3.6-8,8-8h76.7c4.4,0,8,3.6,8,8l0,0
	C37.4-160.5,33.8-156.9,29.4-156.9z"/>
<circle class="st1" cx="-6.3" cy="714.8" r="24"/>
</svg>
